<svg width="208" height="31" xmlns="http://www.w3.org/2000/svg"><g fill="#000" fill-rule="evenodd"><path d="M18.122 10.585c-.089-.034-.154-.065-.222-.084a5.204 5.204 0 0 0-2.495-.088 5.386 5.386 0 0 0-2.785 1.54c-1.579 1.612-2.243 3.583-2.143 5.833.02.459.138.903.35 1.316.317.618.801 1.017 1.474 1.172.682.158 1.33.055 1.948-.27a4.602 4.602 0 0 0 1.314-1.05c1.002-1.138 1.605-2.468 1.85-3.97.184-1.135.37-2.27.555-3.404.053-.327.102-.655.154-.995m3.842-2.248c.017.31-.068.597-.115.886-.257 1.574-.522 3.148-.786 4.72-.157.94-.324 1.877-.475 2.817-.12.745-.228 1.495-.165 2.253.023.281.07.566.152.836.164.543.547.913 1.218.938.45.017.87-.081 1.272-.278.572-.28 1.03-.7 1.425-1.197.59-.744.979-1.593 1.255-2.499.245-.806.388-1.633.46-2.474.06-.68.073-1.36.037-2.04-.066-1.243-.284-2.458-.731-3.62-1.088-2.833-3.07-4.708-5.911-5.647-.99-.327-2.01-.487-3.05-.549-1.663-.1-3.286.1-4.86.649-2.97 1.037-5.23 2.962-6.809 5.712-.837 1.457-1.374 3.029-1.668 4.688a17.325 17.325 0 0 0-.26 3.843c.068 1.442.298 2.855.804 4.21 1.194 3.196 3.408 5.3 6.62 6.317 1.195.378 2.424.54 3.675.553 1.747.017 3.448-.248 5.092-.852.389-.143.763-.327 1.143-.493.088-.038.174-.08.284-.13.19.378.279.774.403 1.156.12.371.273.736.337 1.14-.131.07-.247.136-.366.194a14.356 14.356 0 0 1-4.147 1.272c-1.343.2-2.694.269-4.047.196-2.7-.144-5.193-.944-7.401-2.564C3.113 26.73 1.6 24.55.735 21.897a14.656 14.656 0 0 1-.676-3.449c-.266-3.516.361-6.853 1.995-9.973C3.516 5.682 5.6 3.495 8.338 1.967A15.37 15.37 0 0 1 13.183.261a16.736 16.736 0 0 1 3.092-.26c2.096.02 4.122.406 6.018 1.345 3.369 1.67 5.502 4.373 6.453 8.046.237.911.354 1.842.397 2.786a15.008 15.008 0 0 1-.464 4.558c-.38 1.44-.993 2.765-1.936 3.918-1.008 1.233-2.252 2.108-3.788 2.524-.795.215-1.601.306-2.425.207-1.432-.172-2.477-1.097-2.819-2.526-.08-.335-.118-.68-.18-1.049-.053.031-.111.048-.142.087-.075.097-.135.205-.204.307-.45.668-.962 1.278-1.583 1.789a6.143 6.143 0 0 1-3.403 1.401c-.637.06-1.267.04-1.885-.13-1.147-.312-2.03-.993-2.667-2.005a5.818 5.818 0 0 1-.839-2.394c-.603-4.76 2.29-9.964 7.685-11.25 1.246-.298 2.505-.357 3.777-.236.925.087 1.833.257 2.718.546.334.109.669.223.976.412"/><path d="M52.549 24.623c-1.016.226-2.013.344-3.022.09-.859-.216-1.516-.713-1.973-1.482-.292-.493-.474-1.03-.595-1.589-.413-1.908-.83-3.816-1.234-5.727-.314-1.487-.62-2.976-.917-4.467a37.336 37.336 0 0 1-.489-3.152c-.013-.12-.04-.24-.062-.367-.105.036-.076.118-.087.176-.182.959-.335 1.924-.545 2.878-.32 1.46-.673 2.913-1.022 4.367-.714 2.967-1.435 5.932-2.153 8.899-.03.119-.065.235-.095.341-.23.115-.464.123-.69.157-.702.105-1.403.157-2.111.048-.964-.148-1.705-.629-2.213-1.474-.36-.598-.578-1.253-.742-1.928-.367-1.513-.727-3.028-1.09-4.542L31.06 6.649l-.954-3.965c-.016-.07-.026-.143-.04-.219.114-.094.24-.06.356-.06 1.157-.003 2.315-.002 3.473-.001.268 0 .537-.002.805 0 .083.002.167.015.257.023.117.337.149.683.222 1.02.07.325.127.655.19.982.064.34.128.68.194 1.02.066.34.135.68.2 1.02.064.327.124.655.187.983l.194 1.02c.066.34.135.68.2 1.02.063.327.122.656.184.983l.197 1.02c.064.327.13.655.192.983.064.34.124.68.187 1.02.063.341.13.68.192 1.022.06.328.113.657.171.986.06.34.126.68.185 1.022.06.341.115.683.172 1.024.055.33.101.66.167.988.066.329.08.672.24.982.1-.547.186-1.096.3-1.64.306-1.476.609-2.953.94-4.424.807-3.568 1.63-7.132 2.446-10.698.024-.107.057-.212.088-.327.334-.06.663-.021.99-.028.317-.007.634-.002.95-.002h.988c.317 0 .633-.001.95.001.327.002.655-.01.996.012.074.335.147.646.212.96.633 3.011 1.273 6.021 1.893 9.036.376 1.828.733 3.66 1.029 5.504.065.403.116.808.176 1.211.015.095.04.189.058.27.03.013.044.022.048.02a.055.055 0 0 0 .018-.032c.09-.55.169-1.1.272-1.647.384-2.028.761-4.058 1.169-6.081.615-3.053 1.254-6.102 1.884-9.152.002-.012.008-.023.019-.055.057-.014.125-.043.194-.044 1.426-.002 2.852-.002 4.278 0 .047 0 .094.01.15.018.051.118.002.22-.024.324-.286 1.1-.57 2.2-.857 3.3l-3.552 13.63c-.399 1.53-.795 3.061-1.193 4.592-.028.107-.063.212-.105.353"/><path d="M86.588 24.591c-.046.015-.08.035-.114.035H82.27c-.034 0-.067-.02-.118-.037-.008-.07-.022-.14-.024-.212-.047-1.664-.019-16.054.034-16.43.051-.009.108-.028.166-.028 1.28-.001 2.56-.002 3.84 0 .058 0 .116.013.195.023.039.244.016.477.02.71.004.247 0 .494 0 .742v.691c.1.054.126-.014.16-.06.177-.235.342-.482.532-.707.822-.974 1.874-1.517 3.117-1.697.644-.093 1.286-.113 1.93-.004 1.6.271 2.785 1.121 3.521 2.599l.152.298c.136-.09.194-.217.273-.322.537-.717 1.165-1.333 1.932-1.792 1.233-.737 2.562-.98 3.975-.796 1.074.14 2.011.575 2.795 1.336.59.575 1.006 1.269 1.306 2.038.322.823.498 1.682.567 2.561.04.505.056 1.013.056 1.52.005 3.034.003 6.067.002 9.1 0 .145.026.296-.04.445-.052.009-.098.024-.144.024h-4.255c-.02-.084-.043-.152-.048-.222-.007-.11-.002-.222-.002-.334v-8.58c0-.607-.04-1.211-.173-1.806a4.474 4.474 0 0 0-.318-.946c-.586-1.232-1.661-1.54-2.66-1.359-1.233.225-1.959 1.03-2.282 2.23-.106.396-.127.806-.127 1.216l-.001 9.322c0 .146.021.295-.025.425-.023.019-.032.028-.043.034-.01.005-.022.012-.033.012l-4.132.01c-.06 0-.12-.01-.2-.016-.014-.07-.037-.138-.04-.208-.008-.11-.003-.222-.003-.334v-8.877c0-.534-.039-1.063-.156-1.584a4.011 4.011 0 0 0-.365-1.007c-.595-1.12-1.651-1.38-2.558-1.226-.695.118-1.238.499-1.675 1.045a3.589 3.589 0 0 0-.804 2.222c-.003.149-.002.298-.002.446v9.063c0 .145.017.293-.026.437"/><path d="M67.137 16.617c-.078-.01-.136-.023-.194-.023-.758-.01-1.51.046-2.254.195-.491.099-.97.24-1.419.474-1.063.553-1.517 1.406-1.387 2.613.093.858.63 1.498 1.451 1.713.506.132 1.016.12 1.52-.006 1.165-.292 2.353-1.334 2.306-2.957-.016-.556-.001-1.114-.003-1.67 0-.109-.013-.217-.02-.339m4.724 8a4.168 4.168 0 0 1-1.2.241c-.377.017-.753.026-1.128-.058-.923-.208-1.574-.75-1.973-1.612l-.14-.3c-.004-.008-.02-.01-.053-.026-.044.041-.099.086-.144.14-.838.982-1.907 1.564-3.143 1.838-1.063.235-2.134.255-3.184-.064-1.954-.595-3.124-1.929-3.527-3.96-.285-2.333.446-4.214 2.408-5.538.779-.526 1.64-.866 2.539-1.114a14.988 14.988 0 0 1 2.588-.46c.595-.056 1.191-.083 1.788-.086.095 0 .19-.015.278-.023.147-.848-.222-1.742-.906-2.224a2.82 2.82 0 0 0-.898-.404c-.633-.172-1.279-.189-1.924-.131a9.08 9.08 0 0 0-3.52 1.042c-.116.063-.22.158-.378.172-.295-.992-.582-1.986-.863-2.993.088-.06.153-.112.226-.15.946-.505 1.951-.836 2.993-1.057 1.175-.25 2.363-.351 3.561-.29.955.047 1.889.21 2.779.581 1.401.585 2.39 1.592 2.972 3.01.289.7.45 1.435.535 2.19.06.53.072 1.06.072 1.593v6.017c0 1.102.055 2.201.206 3.294.016.11.021.22.036.372"/><path d="M118.284 16.61c-.101-.008-.16-.016-.22-.017a10.762 10.762 0 0 0-2.182.187c-.515.1-1.018.247-1.488.495a2.815 2.815 0 0 0-.815.619c-.517.589-.653 1.288-.539 2.044.138.913.68 1.487 1.575 1.68.458.1.92.08 1.377-.032 1.15-.281 2.366-1.325 2.313-2.947-.018-.556-.002-1.114-.003-1.67 0-.11-.01-.218-.018-.358m-8.636-7.588c.14-.075.266-.148.396-.214 1.012-.51 2.083-.83 3.191-1.035a13.673 13.673 0 0 1 3.166-.215c.855.042 1.695.177 2.506.472 1.68.613 2.805 1.783 3.394 3.49.252.73.382 1.483.435 2.251.02.309.026.618.027.928.002 1.881.002 3.763 0 5.644 0 1.412.041 2.82.256 4.24-.073.036-.142.084-.219.105a4.777 4.777 0 0 1-1.774.164c-1.063-.114-1.843-.658-2.309-1.647-.052-.11-.097-.223-.157-.361-.063.046-.115.073-.15.114-1.015 1.195-2.324 1.8-3.846 1.99-.92.115-1.823.054-2.709-.23-2.065-.663-3.29-2.504-3.39-4.434-.05-.993.091-1.95.526-2.85.383-.795.944-1.436 1.646-1.955.849-.629 1.801-1.03 2.807-1.31.86-.24 1.736-.384 2.623-.467a20.136 20.136 0 0 1 1.789-.084c.083 0 .166-.013.261-.02.077-.257.042-.503 0-.742-.132-.77-.54-1.34-1.24-1.682a3.662 3.662 0 0 0-1.449-.348c-1.621-.079-3.14.306-4.575 1.063l-.315.168c-.132-.255-.813-2.575-.89-3.035"/><path d="M192.595 16.113c-.015-.206-.037-.539-.066-.871a7.242 7.242 0 0 0-.595-2.324c-.326-.732-.776-1.37-1.393-1.882-1.402-1.162-3.72-1.41-5.466-.043-1.287 1.008-1.934 2.363-1.978 4.005-.026.978-.004 1.956-.005 2.934 0 .462.074.912.219 1.35.44 1.323 1.27 2.295 2.537 2.861.732.327 1.501.411 2.29.344 1.072-.09 2.003-.503 2.766-1.28.543-.554.917-1.214 1.184-1.942.358-.976.474-1.992.507-3.152M180.19.365h2.864c.014.078.033.147.036.217.006.111.002.223.002.334v9.675c.103.05.128-.018.158-.066.217-.345.458-.67.737-.967a5.586 5.586 0 0 1 2.364-1.495 7.158 7.158 0 0 1 3.895-.184c1.563.362 2.797 1.242 3.733 2.557.696.978 1.133 2.075 1.369 3.25.379 1.887.33 3.765-.188 5.62-.369 1.32-.994 2.498-1.95 3.48-1.192 1.225-2.632 1.931-4.325 2.094a7.158 7.158 0 0 1-2.537-.203c-1.42-.377-2.513-1.216-3.33-2.443-.071-.108-.116-.241-.26-.33-.064.131-.036.257-.051.372-.016.123-.025.246-.034.37-.008.123-.014.246-.02.37-.006.123-.008.247-.016.37-.008.124-.022.247-.031.37-.01.124-.016.247-.024.37l-.027.374c-.292.073-.572.03-.849.038-.268.008-.536.005-.804.001-.278-.003-.557.016-.852-.015-.005-.118-.016-.213-.01-.308a64.26 64.26 0 0 0 .119-3.82V.866c0-.157-.018-.317.031-.5"/><path d="M145.31 20.988c.028 1.193.038 2.34.044 3.48-.09.12-.22.127-.333.16a9.046 9.046 0 0 1-1.542.295c-.484.053-.97.094-1.459.08a5.863 5.863 0 0 1-1.896-.35c-1.22-.453-2.052-1.292-2.478-2.546-.24-.707-.357-1.437-.414-2.18a11.732 11.732 0 0 1-.028-.89c-.002-5.371-.001-10.743 0-16.114 0-.158-.015-.319.014-.45.032-.032.04-.043.05-.048a.07.07 0 0 1 .034-.01l3.875-.011c.097 0 .195.002.292.006.024 0 .047.01.07.019.01.003.018.014.057.047.022.217.007.462.01.707.002.247 0 .495 0 .742V6.86c.001.245.005.49.008.742.145.068.28.045.41.045 1 .002 1.999 0 2.998.003.131 0 .267-.023.415.037.01.069.029.14.03.21v3.75c0 .083-.02.166-.034.272-.427.017-.84.006-1.252.008-.426.002-.853 0-1.28 0h-1.256c-.015.106-.037.187-.037.27-.003.544-.002 1.088-.002 1.633 0 1.547.002 3.094.001 4.641 0 .436.045.865.154 1.286.033.131.079.26.13.385.254.62.72.955 1.371 1.01a5.916 5.916 0 0 0 1.78-.117c.07-.015.141-.024.269-.046"/><path d="M173.427 16.137c-.121-.008-.228-.02-.335-.02-.755 0-1.509.039-2.257.138a8.364 8.364 0 0 0-1.81.429 4.657 4.657 0 0 0-1.224.65c-.61.464-1 1.071-1.141 1.835a3.769 3.769 0 0 0-.02 1.219c.166 1.16.83 1.957 1.999 2.22.43.098.867.092 1.307.035 1.059-.137 1.95-.596 2.648-1.418.54-.636.873-1.362.868-2.224-.006-.865 0-1.73-.003-2.596 0-.083-.02-.166-.032-.268m3.124 8.362c-.063.018-.097.036-.132.037h-2.376c-.034 0-.068-.02-.123-.036-.078-.331-.083-.677-.135-1.015-.051-.328-.037-.666-.15-1.018-.069.063-.127.103-.169.156-.879 1.118-2.02 1.811-3.384 2.124-1.088.25-2.18.256-3.249-.1-1.786-.597-2.83-1.857-3.142-3.737-.136-.82-.06-1.63.177-2.422a4.871 4.871 0 0 1 1.515-2.319c.696-.604 1.495-1.019 2.35-1.328.83-.3 1.686-.488 2.557-.611a20.7 20.7 0 0 1 2.805-.195c.093 0 .187-.018.29-.029.01-.068.023-.115.022-.162-.009-.508-.04-1.013-.169-1.507-.356-1.358-1.234-2.14-2.588-2.33-1.706-.24-3.32.092-4.835.925-.107.059-.21.123-.319.187-.031-.027-.073-.045-.083-.074-.211-.619-.419-1.239-.623-1.844.056-.152.181-.188.284-.246.793-.449 1.641-.751 2.524-.96a11.094 11.094 0 0 1 3.011-.286c.77.032 1.526.157 2.253.432 1.259.478 2.18 1.33 2.761 2.561.297.63.48 1.296.587 1.984.093.6.127 1.204.126 1.811-.003 1.981-.005 3.962.001 5.942.002.68.01 1.362.046 2.041.034.63.11 1.257.167 1.885.003.036 0 .072 0 .134"/><path d="M79.004 2.43c.007.093.018.165.018.236v21.92c-.08.017-.136.041-.193.041-1.366.002-2.73.002-4.096 0-.036 0-.072-.01-.126-.02-.014-.064-.037-.132-.043-.202-.007-.086-.002-.173-.002-.26V2.902c0-.147.007-.294.01-.457.074-.016.13-.038.187-.039h4.096c.035 0 .07.012.15.025"/><path d="M129.743 7.938c.029.537.01 1.042.014 1.547.003.507 0 1.013 0 1.56.068-.038.12-.05.135-.08.055-.11.096-.227.145-.34.446-1.039 1.122-1.88 2.094-2.452.964-.569 1.997-.759 3.097-.546.035.006.067.024.11.04.01.045.032.092.032.139 0 1.36 0 2.722-.003 4.083 0 .033-.022.067-.035.102-.15.04-.293-.002-.437-.018-.547-.06-1.092-.078-1.638.015-1.386.234-2.522 1.204-2.838 2.86-.074.391-.092.786-.092 1.182l-.001 8.129c0 .145.025.295-.034.43-.313.057-4.224.056-4.541 0-.01-.04-.028-.087-.028-.133l-.001-16.494c.083-.017.151-.042.22-.043 1.193-.002 2.387-.002 3.58 0 .06 0 .12.01.221.019"/><path d="M152.456 22.034h9.576c.022.06.05.105.05.149.003.743.002 1.485 0 2.228 0 .024-.013.047-.026.09-.06.011-.129.03-.199.037-.084.007-.17.002-.255.002h-11.666c-.144 0-.289-.006-.454-.01-.014-.089-.03-.157-.034-.227-.005-.086-.002-.173-.002-.26V1.636c.074-.02.13-.046.185-.046.866-.003 1.731-.002 2.597 0 .047 0 .094.015.153.026.012.062.03.12.033.18.005.124.002.247.002.371l.001 19.35c0 .158-.018.318.04.517"/><path d="M207.222 8.729c-.231.745-.46 1.445-.701 2.173-.092-.045-.157-.072-.217-.107a6.278 6.278 0 0 0-2.554-.838c-.537-.055-1.07-.04-1.594.116a2.66 2.66 0 0 0-.787.382c-1.037.736-1.186 2.392-.184 3.262.27.235.562.44.882.592a37.5 37.5 0 0 0 1.638.732c.576.239 1.146.487 1.682.81a6 6 0 0 1 1.244.967c.75.777 1.138 1.711 1.185 2.796a5.442 5.442 0 0 1-.14 1.583 4.4 4.4 0 0 1-1.636 2.477c-.694.531-1.48.853-2.323 1.037-1.12.245-2.246.258-3.379.096a8.85 8.85 0 0 1-2.75-.843c-.12-.06-.233-.13-.342-.19.023-.282.524-1.906.683-2.23.095-.023.16.046.232.084.913.49 1.875.83 2.9.965.706.092 1.411.083 2.103-.115.283-.08.551-.197.799-.36.604-.398.925-.97.986-1.692.078-.927-.25-1.669-.999-2.215-.338-.247-.7-.451-1.08-.618-.37-.162-.744-.311-1.118-.458-.66-.26-1.3-.563-1.896-.953a5.886 5.886 0 0 1-1.179-.993c-.85-.948-1.174-2.058-.985-3.324.206-1.38.911-2.433 2.047-3.196.713-.48 1.506-.757 2.347-.88a8.271 8.271 0 0 1 3.93.36c.298.102.585.245.873.377.109.05.206.125.333.203"/></g></svg>