<svg width="106" height="24" xmlns="http://www.w3.org/2000/svg" xmlns:xlink="http://www.w3.org/1999/xlink"><defs><path id="a" d="M.302 23.442h20.377V.168H.302v23.274z"/></defs><g fill="none" fill-rule="evenodd"><path fill="#010202" d="M59.607.795l-8.923 22.56h1.476L61.083.794z"/><path fill="#010202" d="M0 23.64h22.821V.69H0z"/><path d="M92.792 1.18h-.28l-7.738 21.97h5.429l1.308-4.115h7.21l1.336 4.116H105.485L97.718 1.18h-4.926zm2.337 6.189l2.534 7.935h-5.095l2.561-7.935z" fill="#010202"/><g transform="translate(60.894 .39)"><mask id="b" fill="#fff"><use xlink:href="#a"/></mask><path d="M20.68 10.828V22.76H16.781v-2.042c-.539.789-1.16 1.372-1.865 1.747a7.595 7.595 0 0 1-2.143.77c-.353.058-.701.104-1.045.133-.343.03-.672.044-.988.044l-.278.03c-.019-.02-.033-.03-.042-.03h-.042c-.408 0-1.067-.04-1.976-.119-.91-.078-1.865-.355-2.867-.828-1.318-.632-2.52-1.752-3.605-3.36C.845 17.494.3 15.032.3 11.715c0-3.434.878-6.218 2.632-8.35C4.687 1.234 7.438.168 11.186.168h.279c2.134 0 3.804.41 5.01 1.23 1.207.818 2.107 1.711 2.7 2.679.52.868.868 1.677 1.045 2.428.176.75.274 1.224.292 1.421H15.14c-.037-.868-.356-1.658-.96-2.369-.603-.71-1.564-1.076-2.881-1.095-1.596.02-2.77.454-3.522 1.303-.751.848-1.266 1.776-1.544 2.783a10.333 10.333 0 0 0-.32 1.836c-.047.592-.07 1.085-.07 1.48 0 2.468.468 4.24 1.406 5.315.937 1.076 1.962 1.703 3.076 1.881.148.039.287.064.417.073.13.01.26.016.39.016 1.41-.04 2.514-.484 3.312-1.333s1.235-1.846 1.309-2.99h-4.12v-3.998h9.048z" fill="#010202" mask="url(#b)"/></g><path d="M28.738 1.18h10.856c2.506 0 4.269.627 5.29 1.88 1.02 1.254 1.53 2.71 1.53 4.368 0 1.44-.278 2.571-.835 3.39-.557.82-1.169 1.407-1.837 1.762-.13.079-.255.143-.376.192-.12.05-.236.094-.347.134v.089c1.095.315 1.832.853 2.212 1.614.38.76.608 1.564.682 2.413a14.791 14.791 0 0 1 .056 1.302c.019 1.323.06 2.286.125 2.888.065.602.228 1.13.487 1.584.019.059.047.118.084.177l.112.178h-5.234c-.297-.454-.497-.987-.599-1.599-.102-.612-.171-1.639-.208-3.08 0-.098-.005-.207-.014-.325a4.336 4.336 0 0 1-.015-.326 3.868 3.868 0 0 0-.681-1.91c-.4-.582-1.285-.874-2.659-.874h-3.48v8.114H28.739V1.18zm5.15 9.86h4.259a4.316 4.316 0 0 0 2.101-.592c.641-.375.96-1.095.96-2.162 0-1.145-.319-1.904-.96-2.28-.64-.374-1.424-.562-2.352-.562h-4.008v5.597z" fill="#010202"/></g></svg>