<svg width="152" height="35" xmlns="http://www.w3.org/2000/svg" xmlns:xlink="http://www.w3.org/1999/xlink"><defs><path id="a" d="M0 26.958V2.468h24.22v24.49z"/></defs><g fill="none" fill-rule="evenodd"><g transform="translate(0 1.408)"><mask id="b" fill="#fff"><use xlink:href="#a"/></mask><path d="M12.11 26.033C5.93 26.033.913 20.963.913 14.71c0-6.253 5.015-11.322 11.195-11.322 6.183 0 11.196 5.069 11.196 11.322 0 6.253-5.013 11.322-11.196 11.322m0-23.566C5.421 2.467 0 7.95 0 14.711c0 6.764 5.422 12.247 12.11 12.247 6.689 0 12.11-5.483 12.11-12.247 0-6.761-5.421-12.244-12.11-12.244" fill="#231F20" mask="url(#b)"/></g><path d="M25.089 0C7.583 10.4-2.917 31.15 2.255 34.635c2.189 1.477 6.948-1.197 9.799-5.553 0 0-4.414 4.03-6.839 3.101C.735 30.475 9.632 13.18 25.09 0" fill="#231F20"/><path d="M21.048 25.648c5.279-.43 21.038-.851 21.038-.851 0-.982-16.997.42-25.402-7.424l4.364 8.275z" fill="#231F20"/><path fill="#231F20" d="M87.28 7.43h13.727l-1.979 2.654h-6.871l-1.697 2.27 6.875.004-1.972 2.647h-6.878l-1.82 2.445h6.875l-1.975 2.65H77.84z"/><path fill="#231F20" d="M95.453 20.103l9.443-12.671 6.848-.003-9.44 12.674z"/><path fill="#231F20" d="M122.926 13.853l-1.464-6.42h-5.358l-9.443 12.67h4.537l4.74-6.364 1.456 6.364h5.412l9.44-12.67h-4.534z"/><path d="M150.707 13.274h-8.428l-2.665 3.572a1.488 1.488 0 0 1-1.194.602h-1.939a.435.435 0 0 1-.435-.44.45.45 0 0 1 .086-.263l4.517-6.061a1.492 1.492 0 0 1 1.194-.603h1.94a.438.438 0 0 1 .345.703l-.732.986h6.842l1.214-1.621c.21-.283.333-.64.333-1.02 0-.938-.749-1.698-1.677-1.698h-11.006c-1.889 0-3.562.911-4.613 2.324l-5.684 7.629c-.21.286-.34.639-.34 1.02 0 .938.752 1.698 1.68 1.698h11.006a5.764 5.764 0 0 0 4.617-2.325l1.363-1.836h1.587l1.989-2.667z" fill="#231F20"/><path d="M69.497 16.846a1.49 1.49 0 0 1-1.194.606l-1.939-.004a.435.435 0 0 1-.436-.437c0-.101.034-.192.087-.266l4.517-6.061a1.492 1.492 0 0 1 1.194-.602h1.939a.44.44 0 0 1 .346.706l-4.514 6.058zm10.49-9.415H68.986a5.737 5.737 0 0 0-4.613 2.328l-5.685 7.625c-.21.286-.339.64-.339 1.023a1.69 1.69 0 0 0 1.68 1.695h11.006a5.76 5.76 0 0 0 4.617-2.324l5.684-7.629c.206-.282.332-.639.332-1.02 0-.938-.748-1.698-1.68-1.698z" fill="#231F20"/><path fill="#231F20" d="M35.742 20.101l9.443-12.67h6.845L42.594 20.1z"/><path d="M42.593 20.101h7.52a5.748 5.748 0 0 0 4.613-2.324l1.334-1.79c.17-.225.266-.508.266-.814 0-.45-.216-.847-.545-1.096a5.76 5.76 0 0 0 3.326-2.18l1.3-1.746c.217-.285.34-.639.34-1.022 0-.939-.752-1.699-1.677-1.699h-7.038l-1.975 2.65h2.687a.44.44 0 0 1 .436.441c0 .101-.033.192-.087.266l-.721.966a1.484 1.484 0 0 1-1.198.602h-2.81l-1.976 2.65h2.687a.44.44 0 0 1 .436.44c0 .102-.033.193-.086.267l-.848 1.136a1.49 1.49 0 0 1-1.198.603h-2.81l-1.976 2.65z" fill="#231F20"/></g></svg>