<svg width="142" height="45" xmlns="http://www.w3.org/2000/svg" xmlns:xlink="http://www.w3.org/1999/xlink"><defs><path id="a" d="M33.962.411H0v34.481h33.962V.411z"/><path id="c" d="M0 44.59h141.54V.55H0z"/></defs><g fill="none" fill-rule="evenodd"><g transform="translate(0 .138)"><mask id="b" fill="#fff"><use xlink:href="#a"/></mask><path d="M17.678 16.1v4.712h11.385c-.348 2.644-1.24 4.579-2.594 5.939-1.665 1.647-4.26 3.448-8.79 3.448-7.01 0-12.49-5.594-12.49-12.529 0-6.934 5.48-12.528 12.49-12.528 3.775 0 6.543 1.475 8.577 3.372L29.605 5.2C26.778 2.48 22.983.41 17.678.41 8.074.41 0 8.15 0 17.653c0 9.501 8.074 17.24 17.678 17.24 5.19 0 9.1-1.686 12.16-4.827 3.137-3.104 4.124-7.49 4.124-11.015 0-1.092-.078-2.107-.252-2.95H17.678z" fill="#000" mask="url(#b)"/></g><path d="M48.193 30.28c-3.408 0-6.35-2.778-6.35-6.743 0-4.004 2.942-6.744 6.35-6.744 3.408 0 6.351 2.74 6.351 6.744 0 3.965-2.943 6.742-6.35 6.742m0-17.872c-6.216 0-11.289 4.674-11.289 11.13 0 6.398 5.073 11.13 11.288 11.13 6.216 0 11.289-4.714 11.289-11.13 0-6.456-5.073-11.13-11.289-11.13" fill="#000"/><path d="M97.858 30.28c-3.408 0-6.002-2.874-6.002-6.743 0-3.927 2.594-6.744 6.002-6.744 3.37 0 6.002 2.874 6.002 6.781.02 3.89-2.633 6.705-6.002 6.705zm5.674-15.383h-.175c-1.103-1.303-3.233-2.49-5.925-2.49-5.615 0-10.513 4.846-10.513 11.13 0 6.245 4.898 11.13 10.513 11.13 2.692 0 4.822-1.189 5.925-2.53h.175v1.553c0 4.252-2.305 6.532-6.003 6.532-3.02 0-4.899-2.146-5.673-3.966l-4.298 1.763c1.239 2.95 4.51 6.57 9.971 6.57 5.79 0 10.688-3.371 10.688-11.59V12.982h-4.685v1.916z" fill="#000"/><path d="M73.365 30.28c-3.408 0-6.351-2.778-6.351-6.743 0-4.004 2.943-6.744 6.35-6.744 3.409 0 6.352 2.74 6.352 6.744 0 3.965-2.943 6.742-6.351 6.742m0-17.872c-6.216 0-11.289 4.674-11.289 11.13 0 6.398 5.073 11.13 11.289 11.13 6.215 0 11.288-4.714 11.288-11.13 0-6.456-5.073-11.13-11.288-11.13" fill="#000"/><mask id="d" fill="#fff"><use xlink:href="#c"/></mask><path fill="#000" mask="url(#d)" d="M112.09 34.666h4.86V1.008h-4.86z"/><path d="M131.607 16.583c1.995 0 3.698 1.015 4.26 2.452l-10.165 4.156c0-4.674 3.35-6.608 5.905-6.608m.349 13.696c-2.518 0-4.299-1.13-5.46-3.371l15.044-6.15-.503-1.263c-.93-2.49-3.795-7.089-9.624-7.089-5.789 0-10.61 4.502-10.61 11.13 0 6.245 4.763 11.13 11.153 11.13 5.15 0 8.132-3.122 9.371-4.923l-3.834-2.528c-1.277 1.838-3.02 3.064-5.537 3.064" fill="#000" mask="url(#d)"/></g></svg>