<svg width="88" height="36" xmlns="http://www.w3.org/2000/svg" xmlns:xlink="http://www.w3.org/1999/xlink"><defs><path id="a" d="M0 35.493h87.748V0H0z"/></defs><g fill="none" fill-rule="evenodd"><mask id="b" fill="#fff"><use xlink:href="#a"/></mask><path d="M75.443 35.493h12.305v-2.43H75.443v2.43zm-8.127-2.43l.857 2.423.146.003.87-2.425h-1.873zm-18.568 2.43h12.17v-2.43h-12.17v2.43zM19.5 33.063v2.426H38.06c3.292 0 5.778-2.425 5.778-2.425h-24.34zM.134 35.494h17.08v-2.43H.134v2.43zm75.309-4.723h12.305v-2.432H75.443v2.432zm-9.818-2.431l.891 2.431h3.466l.835-2.431h-5.192zM48.748 30.77h12.17v-2.432h-12.17v2.432zM19.5 28.34v2.431h26.293c.554-.556.872-2.431.872-2.431H19.5zM.134 30.77h17.08v-2.432H.134v2.432zm75.309-4.726h7.394v-2.429h-7.394v2.429zm-11.5-2.427l.867 2.427h6.81l.873-2.427h-8.55zm-10.42 2.427h7.395v-2.429h-7.395v2.429zM39 23.617v2.427h7.866c0-1.146-.469-2.427-.469-2.427H39zm-14.592 2.427h7.396v-2.429h-7.396v2.429zm-19.5 0h7.397v-2.429H4.908v2.429zm70.535-4.721h7.394v-2.429h-7.394v2.429zm-13.181-2.429l.896 2.429h10.16l.848-2.429H62.262zm-8.739 2.429h7.395v-2.429h-7.395v2.429zm-29.115-2.429v2.429h20.978c-.505-1.18-2.084-2.429-2.084-2.429H24.408zm-19.5 2.429h7.397v-2.429H4.908v2.429zm48.615-7.153v2.43h7.396v-1.352l.47 1.351h13.55l.504-1.351v1.351h7.396V14.17H68.955l-.738 2.058-.74-2.058H53.523zm-29.115 0v2.43h18.894s1.58-1.247 2.084-2.43H24.408zm-19.5 2.43h7.397v-2.43H4.908v2.43zm65.628-7.156l-.876 2.433H82.84V9.444H70.536zm-17.013 0v2.433h13.115l-.875-2.433h-12.24zM39 9.444v2.433h7.397s.47-1.285.47-2.433H39zm-14.592 2.433h7.396V9.444h-7.396v2.433zm-19.5 0h7.397V9.444H4.908v2.433zm67.24-7.151l-.81 2.424h16.276V4.726H72.148zm-23.534 0V7.15h16.34l-.81-2.424h-15.53zm-29.114 0V7.15h27.165s-.318-1.868-.872-2.424H19.5zM0 7.15h17.08V4.722H0V7.15zM73.897 0l-.875 2.428h14.592V0H73.897zM48.614 0v2.428H63.34L62.465 0h-13.85zM19.5 0v2.428h24.339S41.353 0 38.06 0H19.5zM0 2.429h17.08V-.001H0v2.429z" fill="#000" mask="url(#b)"/></g></svg>