<svg width="121" height="37" xmlns="http://www.w3.org/2000/svg" xmlns:xlink="http://www.w3.org/1999/xlink"><defs><path id="a" d="M15.396.015v21.04H.044V.016h15.352z"/><path id="c" d="M0 .103v21.496h17.866V.103H0z"/></defs><g fill="none" fill-rule="evenodd"><path d="M74.916 28.916c-7.016 5.21-17.187 7.981-25.948 7.981-12.276 0-23.33-4.566-31.696-12.168-.655-.595-.07-1.413.72-.951 9.025 5.287 20.187 8.47 31.713 8.47 7.776 0 16.325-1.623 24.19-4.982 1.186-.505 2.18.789 1.02 1.65" fill="#000"/><path d="M77.835 25.562c-.899-1.157-5.931-.549-8.195-.276-.684.083-.79-.519-.172-.954 4.015-2.84 10.594-2.019 11.361-1.071.77.96-.201 7.599-3.965 10.768-.578.489-1.13.226-.873-.416.846-2.128 2.743-6.894 1.844-8.05" fill="#000"/><path d="M69.801 4.276V1.52a.682.682 0 0 1 .694-.702H82.78c.393 0 .708.29.708.698v2.365c-.004.395-.334.914-.926 1.736l-6.361 9.145c2.36-.057 4.86.299 7.005 1.513.483.272.615.678.651 1.077v2.943c0 .406-.439.875-.902.629-3.783-1.992-8.8-2.212-12.98.027-.43.226-.876-.237-.876-.642v-2.797c0-.45.007-1.214.457-1.896l7.372-10.645h-6.417c-.394 0-.708-.282-.711-.695" fill="#000"/><path d="M24.989 21.505H21.25a.703.703 0 0 1-.667-.635V1.565c0-.386.324-.695.723-.695h3.48a.706.706 0 0 1 .68.649v2.52h.07c.906-2.437 2.618-3.575 4.917-3.575 2.34 0 3.804 1.138 4.852 3.575C36.21 1.602 38.27.464 40.467.464c1.57 0 3.281.649 4.326 2.112 1.186 1.623.945 3.98.945 6.052l-.004 12.182a.708.708 0 0 1-.72.695H41.28a.701.701 0 0 1-.67-.692V10.577c0-.811.069-2.843-.107-3.614-.28-1.3-1.116-1.667-2.197-1.667-.909 0-1.85.609-2.234 1.587-.383.974-.347 2.597-.347 3.694V20.81a.708.708 0 0 1-.72.695H31.27a.702.702 0 0 1-.671-.692l-.003-10.236c0-2.151.347-5.32-2.304-5.32-2.686 0-2.58 3.086-2.58 5.32l-.004 10.233c0 .386-.32.695-.72.695" fill="#000"/><path d="M94.1 4.403c-2.756 0-2.932 3.778-2.932 6.132 0 2.358-.033 7.396 2.895 7.396 2.898 0 3.037-4.064 3.037-6.541 0-1.626-.07-3.575-.559-5.118-.42-1.34-1.255-1.869-2.442-1.869m-.036-3.94c5.548 0 8.549 4.795 8.549 10.887 0 5.89-3.315 10.562-8.549 10.562-5.442 0-8.406-4.796-8.406-10.765 0-6.012 3-10.685 8.406-10.685" fill="#000"/><g transform="translate(105.36 .45)"><mask id="b" fill="#fff"><use xlink:href="#a"/></mask><path d="M4.445 21.056H.721a.704.704 0 0 1-.67-.692L.043 1.049a.712.712 0 0 1 .72-.628H4.23c.324.017.595.24.665.538v2.954h.07C6.011 1.273 7.474.015 10.055.015c1.676 0 3.315.609 4.362 2.275.978 1.543.978 4.143.978 6.012v12.145a.712.712 0 0 1-.716.609h-3.748a.706.706 0 0 1-.664-.609V9.965c0-2.112.244-5.198-2.34-5.198-.905 0-1.745.609-2.161 1.543-.522 1.178-.595 2.355-.595 3.655V20.36a.717.717 0 0 1-.727.696" fill="#000" mask="url(#b)"/></g><path d="M63.776 21.456a.765.765 0 0 1-.882.087c-1.243-1.038-1.464-1.517-2.142-2.504-2.052 2.101-3.506 2.733-6.163 2.733-3.146 0-5.594-1.955-5.594-5.863 0-3.053 1.642-5.128 3.985-6.148 2.03-.895 4.86-1.058 7.029-1.3v-.49c0-.897.07-1.955-.456-2.727-.453-.695-1.329-.977-2.099-.977-1.424 0-2.69.735-3.004 2.258-.062.34-.31.675-.647.691l-3.622-.395c-.307-.07-.648-.316-.558-.785.832-4.423 4.801-5.76 8.357-5.76 1.817 0 4.197.489 5.628 1.873 1.82 1.709 1.645 3.99 1.645 6.474v5.86c0 1.762.727 2.534 1.411 3.485.238.342.29.748-.013.998-.764.645-2.122 1.832-2.865 2.5l-.01-.01zm-3.767-9.171c0 1.466.033 2.686-.7 3.99-.596 1.058-1.537 1.71-2.588 1.71-1.434 0-2.274-1.098-2.274-2.727 0-3.203 2.855-3.785 5.562-3.785v.812z" fill="#000"/><g transform="translate(0 .173)"><mask id="d" fill="#fff"><use xlink:href="#c"/></mask><path d="M14.781 21.283a.765.765 0 0 1-.882.086c-1.243-1.037-1.464-1.516-2.145-2.503-2.049 2.101-3.502 2.733-6.16 2.733C2.45 21.6 0 19.644 0 15.736c0-3.053 1.642-5.128 3.985-6.149 2.03-.894 4.861-1.057 7.029-1.3v-.489c0-.897.07-1.955-.456-2.727-.453-.695-1.328-.977-2.098-.977-1.424 0-2.693.735-3.004 2.258-.063.339-.31.675-.648.691l-3.622-.395C.88 6.578.54 6.332.628 5.863 1.46 1.44 5.429.103 8.985.103c1.817 0 4.197.489 5.63 1.872 1.818 1.71 1.643 3.99 1.643 6.475v5.86c0 1.762.727 2.534 1.411 3.485.238.342.291.748-.013.997-.763.645-2.121 1.833-2.865 2.501l-.01-.01zm-3.767-9.172c0 1.467.033 2.687-.7 3.99-.595 1.058-1.537 1.71-2.588 1.71-1.434 0-2.274-1.097-2.274-2.727 0-3.202 2.859-3.784 5.562-3.784v.811z" fill="#000" mask="url(#d)"/></g></g></svg>